PathFileType	4	(x/y/z)	A01_SLOW_T0026.trc
DataRate	CameraRate	NumFrames	NumMarkers	Units	OrigDataRate	OrigDataStartFrame	OrigNumFrames
240	240	11	48	mm	240	91	361
Frame#	Time	TOP_HEAD			R_AC			L_AC			R_ASIS			L_ASIS			R_PSIS			L_PSIS			SACRAL			L_IC			R_IC			L_GT			R_GT			R_LAT_KNEE			R_MED_KNEE			L_MED_KNEE			L_LAT_KNEE			R_TOE			L_TOE			R_1ST_MET			L_1ST_MET			L_5TH_MET			R_5TH_MET			R_LAT_ANK			R_MED_ANK			L_MED_ANK			L_LAT_ANK			L_HEEL_SUP			R_HEEL_SUP			L_HEEL_LAT			R_HEEL_LAT			L_HEEL_MED			R_HEEL_MED			R_LL_PROX_POST			R_LL_PROX_ANT			R_LL_DIST_ANT			R_LL_DIST_POST			R_THIGH_PROX_POST			R_THIGH_PROX_ANT			R_THIGH_DIST_ANT			R_THIGH_DIST_POST			L_PROS_PROX_ANT			L_PROS_PROX_POST			L_PROS_DIST_POST			L_PROS_DIST_ANT			L_THIGH_PROX_ANT			L_THIGH_PROX_POST			L_THIGH_DIST_POST			L_THIGH_DIST_ANT			
		X1	Y1	Z1	X2	Y2	Z2	X3	Y3	Z3	X4	Y4	Z4	X5	Y5	Z5	X6	Y6	Z6	X7	Y7	Z7	X8	Y8	Z8	X9	Y9	Z9	X10	Y10	Z10	X11	Y11	Z11	X12	Y12	Z12	X13	Y13	Z13	X14	Y14	Z14	X15	Y15	Z15	X16	Y16	Z16	X17	Y17	Z17	X18	Y18	Z18	X19	Y19	Z19	X20	Y20	Z20	X21	Y21	Z21	X22	Y22	Z22	X23	Y23	Z23	X24	Y24	Z24	X25	Y25	Z25	X26	Y26	Z26	X27	Y27	Z27	X28	Y28	Z28	X29	Y29	Z29	X30	Y30	Z30	X31	Y31	Z31	X32	Y32	Z32	X33	Y33	Z33	X34	Y34	Z34	X35	Y35	Z35	X36	Y36	Z36	X37	Y37	Z37	X38	Y38	Z38	X39	Y39	Z39	X40	Y40	Z40	X41	Y41	Z41	X42	Y42	Z42	X43	Y43	Z43	X44	Y44	Z44	X45	Y45	Z45	X46	Y46	Z46	X47	Y47	Z47	X48	Y48	Z48	

91	0.37604	-236.35	1775.7	238.13	-425.47	1560.2	514.35	-489.19	1530.7	58.969	-429.34	1092.7	528.23	-402.43	1031.9	178.07	-637.22	1077.2	390.12	-622.89	1081.1	258.58	-644.76	1048.6	323.04	-437.29	1139.6	127.5	-471.33	1209.5	520.09	-459.07	948.17	138.11	-490.16	979.06	568.8	-459.39	578.15	556.91	-410.14	550.47	431.11	-384.32	561.81	368.49	-405.73	566.14	211.79	-708.43	62.739	450.35	-250.23	84.173	276	-763.83	124.71	400.45	-328.66	57.351	333.75	-359.94	46.878	204.91	-802.66	132.34	529.25	-803.07	270.24	514.97	-784.12	275.99	415.84	-454.5	127.05	316.94	-487.47	118.4	249.84	-573.62	73.381	292.31	-876.85	337.93	450.46	-562	45.071	260.79	-896.9	317.15	481.19	-551.39	44.094	324.76	-891.88	319.2	422.01	-635.8	519.56	545.82	-597.05	464.03	574.01	-646.57	409.68	554.24	-681.29	450.55	536.42	-514.28	832.42	559.35	-450.02	860.46	566.11	-433.11	769.47	569.88	-496.37	744.16	559.8	-364.64	481.21	225.77	-419.88	484.34	215.49	-429.99	422.92	225.18	-376.31	426.73	233.62	-379.19	813.24	178.61	-449.4	810.96	161.81	-431.37	738.05	177.39	-367.5	741.2	192.06
92	0.38022	-232.7	1776.1	238.19	-422.6	1560.5	514.39	-484.83	1530.9	58.723	-425.29	1093.1	527.77	-398.28	1032.2	177.69	-633.08	1077.2	389.66	-618.73	1081.3	258.12	-640.57	1048.6	322.57	-433.34	1139.6	127.13	-467.48	1209.5	519.82	-454.97	948.39	137.72	-485.62	979.32	568.4	-451.49	578.63	556.76	-402.88	551.35	430.96	-382.26	561.69	368.32	-403.59	566.05	211.63	-694.81	63.569	451.39	-250.16	84.09	275.97	-751.43	124.07	401.17	-328.6	57.342	333.73	-359.92	46.876	204.93	-790.4	131.75	529.92	-793.45	269.27	514.81	-774.58	274.94	415.64	-454.19	127.21	316.9	-487.17	118.68	249.82	-573.46	73.71	292.32	-868.57	335.35	449.96	-561.94	45.347	260.8	-888.22	314.3	480.76	-551.32	44.394	324.76	-883.2	316.14	421.58	-627.57	519.17	545.99	-588.49	463.82	574.07	-637.74	409.22	554.29	-672.7	449.92	536.55	-508.4	832.46	559.14	-444.1	860.98	565.8	-426.7	770.15	569.73	-489.81	744.34	559.7	-362.87	480.96	225.64	-418.08	484.31	215.35	-428.47	422.95	225.08	-374.76	426.53	233.51	-375.56	813.17	178.37	-445.83	811.17	161.52	-428.12	738.19	177.13	-364.24	741.09	191.89
93	0.3844	-229.05	1776.5	238.26	-419.73	1560.9	514.43	-480.45	1531.1	58.489	-421.25	1093.5	527.31	-394.18	1032.4	177.31	-628.96	1077.2	389.22	-614.59	1081.4	257.67	-636.4	1048.7	322.12	-429.45	1139.7	126.75	-463.62	1209.6	519.55	-450.91	948.62	137.35	-481.1	979.6	568.01	-443.65	579.14	556.59	-395.35	552.28	430.8	-380.23	561.58	368.15	-401.48	565.97	211.47	-681	64.291	452.45	-250.08	84.003	275.94	-738.83	123.28	401.89	-328.53	57.331	333.7	-359.89	46.873	204.96	-777.95	131	530.6	-783.67	268.1	514.63	-764.89	273.67	415.43	-453.88	127.37	316.86	-486.86	118.97	249.8	-573.31	74.057	292.33	-860.14	332.49	449.45	-561.88	45.638	260.81	-879.38	311.2	480.32	-551.25	44.712	324.75	-874.36	312.8	421.13	-619.37	518.68	546.13	-579.93	463.54	574.1	-628.87	408.66	554.33	-664.09	449.17	536.63	-502.56	832.53	558.92	-438.18	861.52	565.5	-420.36	770.86	569.58	-483.3	744.55	559.6	-361.12	480.72	225.51	-416.31	484.3	215.22	-426.97	423	224.96	-373.24	426.34	233.39	-371.96	813.12	178.13	-442.3	811.39	161.23	-424.91	738.33	176.88	-361.02	740.97	191.73
94	0.38858	-225.39	1777	238.36	-416.85	1561.3	514.47	-476.07	1531.3	58.266	-417.22	1094	526.85	-390.12	1032.7	176.94	-624.86	1077.2	388.8	-610.49	1081.6	257.24	-632.25	1048.7	321.69	-425.62	1139.8	126.38	-459.76	1209.7	519.29	-446.88	948.84	136.98	-476.61	979.91	567.62	-435.86	579.67	556.39	-387.63	553.25	430.64	-378.23	561.47	367.97	-399.4	565.9	211.3	-667.02	64.906	453.53	-249.99	83.911	275.92	-726.05	122.34	402.63	-328.47	57.317	333.67	-359.87	46.87	204.99	-765.34	130.09	531.29	-773.75	266.72	514.45	-755.06	272.19	415.22	-453.57	127.55	316.81	-486.55	119.27	249.77	-573.16	74.421	292.33	-851.56	329.38	448.92	-561.82	45.945	260.83	-870.37	307.84	479.86	-551.19	45.046	324.75	-865.34	309.19	420.66	-611.2	518.1	546.21	-571.36	463.21	574.09	-619.96	408.01	554.34	-655.47	448.3	536.68	-496.77	832.62	558.7	-432.3	862.08	565.19	-414.08	771.6	569.43	-476.84	744.79	559.48	-359.41	480.5	225.37	-414.57	484.29	215.08	-425.49	423.05	224.84	-371.74	426.16	233.27	-368.41	813.06	177.9	-438.79	811.61	160.94	-421.73	738.48	176.63	-357.83	740.87	191.58
95	0.39275	-221.74	1777.4	238.48	-413.98	1561.7	514.51	-471.68	1531.6	58.054	-413.2	1094.5	526.4	-386.09	1032.9	176.58	-620.78	1077.3	388.4	-606.41	1081.8	256.84	-628.13	1048.8	321.28	-421.83	1139.9	126.02	-455.9	1209.8	519.04	-442.9	949.07	136.61	-472.13	980.23	567.25	-428.13	580.22	556.16	-379.76	554.25	430.47	-376.25	561.38	367.79	-397.34	565.84	211.13	-652.88	65.42	454.63	-249.9	83.815	275.89	-713.08	121.25	403.37	-328.4	57.3	333.64	-359.84	46.867	205.02	-752.55	129.04	531.98	-763.68	265.13	514.26	-745.08	270.51	414.99	-453.25	127.73	316.76	-486.24	119.57	249.74	-573.01	74.802	292.34	-842.81	326	448.38	-561.75	46.268	260.84	-861.2	304.23	479.39	-551.14	45.396	324.74	-856.14	305.33	420.17	-603.05	517.44	546.25	-562.79	462.83	574.06	-611.02	407.28	554.33	-646.82	447.32	536.69	-491.02	832.75	558.48	-426.46	862.66	564.9	-407.85	772.36	569.27	-470.45	745.07	559.35	-357.71	480.28	225.23	-412.85	484.29	214.94	-424.03	423.1	224.71	-370.26	425.99	233.15	-364.9	813.01	177.68	-435.33	811.83	160.66	-418.59	738.63	176.39	-354.68	740.77	191.43
96	0.39693	-218.09	1777.8	238.62	-411.1	1562.1	514.54	-467.28	1531.9	57.852	-409.19	1094.9	525.95	-382.09	1033.2	176.22	-616.72	1077.3	388.01	-602.35	1081.9	256.45	-624.03	1048.9	320.89	-418.08	1140	125.67	-452.03	1209.9	518.81	-438.95	949.3	136.26	-467.68	980.57	566.88	-420.45	580.79	555.92	-371.8	555.29	430.29	-374.29	561.29	367.61	-395.3	565.79	210.96	-638.59	65.837	455.75	-249.81	83.715	275.87	-699.93	120.02	404.13	-328.34	57.281	333.61	-359.81	46.863	205.05	-739.61	127.85	532.67	-753.47	263.35	514.07	-734.96	268.62	414.77	-452.94	127.92	316.71	-485.92	119.88	249.71	-572.87	75.199	292.34	-833.9	322.38	447.84	-561.69	46.604	260.84	-851.85	300.38	478.92	-551.09	45.763	324.72	-846.76	301.21	419.67	-594.93	516.69	546.25	-554.23	462.4	574	-602.04	406.48	554.29	-638.17	446.23	536.66	-485.32	832.9	558.25	-420.67	863.27	564.6	-401.69	773.14	569.11	-464.11	745.37	559.21	-356.04	480.07	225.09	-411.15	484.29	214.79	-422.58	423.17	224.58	-368.8	425.84	233.03	-361.44	812.97	177.48	-431.89	812.06	160.38	-415.48	738.79	176.15	-351.57	740.67	191.29
97	0.40111	-214.43	1778.2	238.78	-408.21	1562.5	514.57	-462.87	1532.2	57.66	-405.19	1095.4	525.51	-378.13	1033.4	175.86	-612.68	1077.4	387.65	-598.32	1082.1	256.08	-619.95	1049	320.52	-414.33	1140.2	125.32	-448.16	1210	518.59	-435.03	949.53	135.92	-463.24	980.92	566.53	-412.84	581.39	555.65	-363.78	556.36	430.11	-372.35	561.2	367.43	-393.3	565.74	210.79	-624.16	66.163	456.9	-249.71	83.61	275.84	-686.62	118.66	404.9	-328.27	57.26	333.58	-359.77	46.86	205.08	-726.51	126.53	533.37	-743.12	261.39	513.87	-724.7	266.53	414.54	-452.62	128.12	316.66	-485.6	120.2	249.68	-572.74	75.61	292.34	-824.83	318.51	447.28	-561.62	46.954	260.85	-842.33	296.3	478.44	-551.06	46.145	324.71	-837.19	296.85	419.16	-586.84	515.87	546.18	-545.67	461.93	573.89	-593.04	405.6	554.22	-629.49	445.04	536.59	-479.67	833.08	558.03	-414.95	863.89	564.32	-395.59	773.94	568.94	-457.83	745.7	559.07	-354.39	479.88	224.94	-409.48	484.3	214.65	-421.15	423.25	224.45	-367.36	425.69	232.9	-358.03	812.92	177.29	-428.48	812.3	160.11	-412.4	738.96	175.91	-348.49	740.58	191.15
98	0.40529	-210.77	1778.6	238.96	-405.31	1563	514.61	-458.44	1532.6	57.478	-401.2	1095.9	525.07	-374.2	1033.6	175.51	-608.65	1077.5	387.31	-594.32	1082.3	255.73	-615.89	1049.1	320.17	-410.6	1140.3	124.98	-444.29	1210.1	518.38	-431.14	949.76	135.58	-458.82	981.28	566.19	-405.29	582.01	555.37	-355.75	557.46	429.92	-370.43	561.13	367.24	-391.31	565.7	210.62	-609.61	66.404	458.07	-249.6	83.501	275.82	-673.13	117.18	405.67	-328.2	57.237	333.54	-359.74	46.858	205.11	-713.27	125.08	534.07	-732.63	259.23	513.67	-714.3	264.26	414.31	-452.3	128.33	316.62	-485.28	120.52	249.65	-572.61	76.034	292.34	-815.58	314.41	446.72	-561.54	47.314	260.85	-832.64	292	477.95	-551.03	46.542	324.68	-827.43	292.26	418.65	-578.78	514.98	546.06	-537.12	461.42	573.75	-584.01	404.65	554.14	-620.81	443.75	536.47	-474.09	833.29	557.8	-409.29	864.54	564.05	-389.54	774.77	568.78	-451.6	746.06	558.91	-352.76	479.69	224.8	-407.83	484.32	214.5	-419.74	423.33	224.31	-365.93	425.55	232.78	-354.67	812.88	177.12	-425.1	812.55	159.84	-409.35	739.14	175.68	-345.45	740.49	191.03
99	0.40947	-207.12	1779	239.15	-402.4	1563.4	514.64	-453.99	1533	57.304	-397.21	1096.4	524.64	-370.29	1033.9	175.17	-604.65	1077.6	386.99	-590.34	1082.5	255.4	-611.85	1049.3	319.84	-406.88	1140.5	124.65	-440.42	1210.2	518.19	-427.29	950	135.25	-454.42	981.66	565.87	-397.8	582.64	555.06	-347.74	558.58	429.72	-368.53	561.06	367.06	-389.36	565.67	210.45	-594.95	66.566	459.25	-249.49	83.389	275.79	-659.49	115.58	406.46	-328.13	57.213	333.51	-359.7	46.856	205.14	-699.88	123.51	534.77	-722	256.91	513.47	-703.75	261.8	414.09	-451.98	128.55	316.57	-484.95	120.85	249.62	-572.5	76.469	292.33	-806.16	310.08	446.16	-561.47	47.684	260.85	-822.77	287.47	477.47	-551.02	46.951	324.65	-817.47	287.45	418.13	-570.75	514.02	545.87	-528.59	460.88	573.56	-574.96	403.65	554.02	-612.12	442.38	536.31	-468.56	833.52	557.58	-403.7	865.2	563.79	-383.56	775.61	568.61	-445.43	746.45	558.75	-351.15	479.51	224.66	-406.19	484.34	214.35	-418.34	423.41	224.17	-364.52	425.43	232.65	-351.35	812.84	176.96	-421.75	812.8	159.58	-406.33	739.32	175.45	-342.45	740.41	190.9
100	0.41365	-203.46	1779.5	239.36	-399.47	1563.9	514.68	-449.53	1533.4	57.14	-393.23	1096.9	524.22	-366.4	1034.1	174.83	-600.67	1077.7	386.7	-586.39	1082.7	255.1	-607.84	1049.4	319.54	-403.14	1140.7	124.33	-436.56	1210.3	518.01	-423.47	950.23	134.94	-450.04	982.04	565.56	-390.39	583.3	554.74	-339.77	559.73	429.51	-366.64	561	366.87	-387.43	565.65	210.28	-580.17	66.657	460.45	-249.38	83.272	275.77	-645.68	113.88	407.25	-328.06	57.187	333.47	-359.66	46.856	205.17	-686.35	121.83	535.49	-711.24	254.41	513.27	-693.07	259.16	413.87	-451.66	128.78	316.52	-484.63	121.19	249.58	-572.39	76.912	292.32	-796.56	305.53	445.6	-561.4	48.06	260.85	-812.73	282.75	476.98	-551.02	47.37	324.62	-807.32	282.43	417.63	-562.76	512.99	545.62	-520.07	460.31	573.33	-565.89	402.59	553.89	-603.42	440.93	536.11	-463.09	833.78	557.35	-398.18	865.88	563.54	-377.63	776.46	568.43	-439.31	746.85	558.58	-349.56	479.34	224.52	-404.58	484.37	214.21	-416.95	423.51	224.03	-363.13	425.31	232.52	-348.09	812.81	176.83	-418.43	813.05	159.32	-403.33	739.5	175.22	-339.48	740.34	190.79
101	0.41782	-199.79	1779.9	239.59	-396.53	1564.3	514.71	-445.04	1533.9	56.985	-389.26	1097.3	523.81	-362.54	1034.3	174.5	-596.71	1077.8	386.43	-582.47	1082.9	254.81	-603.85	1049.5	319.25	-399.41	1140.9	124.02	-432.7	1210.4	517.84	-419.68	950.46	134.63	-445.67	982.43	565.26	-383.06	583.98	554.39	-331.87	560.89	429.29	-364.76	560.94	366.69	-385.53	565.63	210.11	-565.3	66.683	461.67	-249.26	83.152	275.75	-631.72	112.09	408.06	-327.99	57.161	333.42	-359.62	46.857	205.2	-672.7	120.05	536.2	-700.35	251.75	513.07	-682.24	256.36	413.67	-451.34	129.01	316.48	-484.3	121.53	249.54	-572.29	77.361	292.31	-786.78	300.77	445.04	-561.32	48.441	260.84	-802.5	277.82	476.51	-551.04	47.797	324.59	-796.96	277.23	417.13	-554.81	511.91	545.3	-511.57	459.72	573.06	-556.82	401.49	553.73	-594.72	439.4	535.85	-457.69	834.06	557.13	-392.74	866.57	563.3	-371.76	777.33	568.26	-433.24	747.28	558.4	-347.99	479.18	224.38	-402.99	484.41	214.06	-415.58	423.6	223.89	-361.75	425.2	232.4	-344.87	812.77	176.71	-415.15	813.31	159.07	-400.37	739.69	175	-336.54	740.26	190.67
